<?xml version="1.0" encoding="utf-8"?>
<!-- Generator: Adobe Illustrator 25.3.1, SVG Export Plug-In . SVG Version: 6.00 Build 0)  -->
<svg version="1.1" id="Layer_1" xmlns="http://www.w3.org/2000/svg" xmlns:xlink="http://www.w3.org/1999/xlink" x="0px" y="0px"
	 viewBox="0 0 800 300" style="enable-background:new 0 0 800 300;" xml:space="preserve">
<style type="text/css">
	.st0{display:none;}
	.st1{display:inline;}
	.st2{fill:#27AAE1;}
	.st3{fill:#414042;}
</style>
<g id="Layer_1_1_" class="st0">
	<g class="st1">
		<g>
			<g>
				<circle class="st2" cx="207.9" cy="73.8" r="30.6"/>
			</g>
			<g>
				<circle class="st2" cx="324" cy="73.8" r="30.6"/>
			</g>
			<g>
				<path class="st2" d="M381.3,58.7c-7.9,0.5-14,7.3-14.1,15.3c-0.1,23.8-19.5,43.1-43.3,43.1c-21.7,0-39.8-16.1-42.8-37
					c0.2-2.1,0.3-4.2,0.3-6.3c0-8.5-7-15.3-15.5-15.1c-8.5-0.2-15.5,6.6-15.5,15.1c0,2.1,0.1,4.2,0.3,6.3c-3.1,20.9-21.1,37-42.8,37
					c-23.8,0-43.2-19.3-43.3-43.1c0-7.9-6.2-14.7-14.1-15.3c-8.8-0.6-16.2,6.4-16.2,15.1c0,21.9,9.6,41.5,24.8,55
					c2.4,2.1,3.7,5.2,3.7,8.3l-0.2,97.4c0,12.3,8,22.3,17.8,22.3s17.8-10,17.8-22.3v-56.6c0-6.7,4.4-12.2,9.7-12.2
					c5.4,0,9.7,5.5,9.7,12.2v10.2c0,12.3,8,22.3,17.8,22.3s17.8-10,17.8-22.3l-0.2-51c0-3.1,1.3-6.2,3.6-8.2c3.4-3,6.5-6.3,9.3-9.9
					c2.8,3.6,5.9,6.9,9.3,9.9c2.3,2.1,3.6,5.1,3.6,8.2l-0.2,51c0,12.3,8,22.3,17.8,22.3s17.8-10,17.8-22.3v-10.2
					c0-6.7,4.4-12.2,9.7-12.2s9.7,5.5,9.7,12.2v56.6c0,12.3,8,22.3,17.8,22.3s17.8-10,17.8-22.3l-0.2-97.4c0-3.2,1.3-6.2,3.7-8.3
					c15.2-13.5,24.8-33.1,24.8-55C397.5,65.1,390.2,58.1,381.3,58.7z"/>
			</g>
		</g>
		<g>
			<path class="st3" d="M422.4,233.3c-4.5,0-8.7-0.6-12.5-1.9c-3.8-1.3-7.2-3.1-10-5.6s-5.1-5.5-6.7-9c-1.6-3.6-2.4-7.8-2.4-12.5
				v-0.4c0-4.9,0.9-9.2,2.7-12.9c1.8-3.7,4.3-6.8,7.5-9.2s7-4.3,11.6-5.6c4.5-1.3,9.6-1.9,15.1-1.9c4.4,0,8.6,0.4,12.6,1.1
				c4,0.8,7.3,1.6,10,2.5v-1.6c0-4.9-1.5-8.6-4.6-11.3s-7.8-4-14.2-4c-5,0-9.5,0.5-13.6,1.4s-8.2,2.2-12.4,3.8l-6.8-23.3
				c5.3-2.2,11-4,17-5.3s13-2,21.1-2c8.5,0,15.6,1,21.5,3s10.6,4.8,14.4,8.5c3.6,3.5,6.2,7.7,7.7,12.6c1.6,4.9,2.4,10.7,2.4,17.3
				v54.1h-32.7v-9.7c-3.2,3.6-7.1,6.5-11.6,8.6C434,232.2,428.7,233.3,422.4,233.3z M434.2,212.6c4.9,0,8.8-1.4,11.8-4.2
				s4.5-6.5,4.5-11.3v-4.4c-1.6-0.7-3.6-1.3-5.8-1.7c-2.3-0.5-4.6-0.7-7-0.7c-4.9,0-8.6,1.1-11.2,3.2c-2.6,2.1-3.9,5-3.9,8.4v0.4
				c0,3.2,1.1,5.8,3.3,7.6C428.1,211.7,430.9,212.6,434.2,212.6z"/>
			<path class="st3" d="M537.2,233.1c-10,0-17.8-2.4-23.4-7.1c-5.6-4.7-8.4-12.8-8.4-24v-38.3h-11.1v-26.6h11.1v-23.8h33.2v23.8
				h21.9v26.6h-21.9v31.8c0,3.4,0.8,5.8,2.3,7.2s3.8,2.2,6.8,2.2c2.2,0,4.4-0.3,6.4-0.9c2.1-0.6,4.1-1.3,6.1-2.3v25.9
				c-3,1.6-6.4,2.9-10.3,3.9C546.1,232.6,541.8,233.1,537.2,233.1z"/>
			<path class="st3" d="M621.2,233.4c-7.4,0-14.2-1.2-20.3-3.6c-6.2-2.4-11.5-5.7-15.9-9.9c-4.5-4.2-7.9-9.4-10.4-15.4
				s-3.7-12.7-3.7-20v-0.4c0-6.8,1.2-13.2,3.5-19.2s5.6-11.2,9.8-15.6c4.2-4.5,9.2-8,15-10.5s12.2-3.8,19.1-3.8
				c8.1,0,15.2,1.4,21.1,4.2c6,2.8,10.9,6.5,14.8,11.2c3.9,4.7,6.8,10.1,8.7,16.4c1.9,6.2,2.9,12.8,2.9,19.7c0,1,0,2.1,0,3.3
				s-0.1,2.3-0.2,3.5h-63c1.3,5.2,3.7,9.1,7.2,11.6s7.9,3.8,13.1,3.8c3.9,0,7.6-0.8,10.9-2.3c3.3-1.5,6.6-3.9,10-7.3l18.3,15.1
				c-4.5,5.8-10.1,10.4-16.8,13.9C638.6,231.7,630.6,233.4,621.2,233.4z M634.8,176.4c-0.6-5.2-2.3-9.4-5.2-12.4
				c-2.9-3.1-6.6-4.6-11.1-4.6c-4.4,0-8,1.5-10.8,4.6s-4.6,7.2-5.6,12.4H634.8z"/>
		</g>
	</g>
</g>
<g id="Layer_2_1_">
	<g>
		<g>
			<g>
				<ellipse transform="matrix(0.1091 -0.994 0.994 0.1091 45.9017 167.2162)" class="st2" cx="116.2" cy="58" rx="37" ry="37"/>
			</g>
			<g>
				<circle class="st2" cx="256.4" cy="58" r="37"/>
			</g>
			<g>
				<path class="st2" d="M325.6,39.7c-9.5,0.7-17,8.9-17,18.4c-0.1,28.7-23.5,52.1-52.3,52.1c-26.2,0-48-19.4-51.7-44.7
					c0.2-2.5,0.4-5,0.4-7.6c0-10.2-8.4-18.5-18.7-18.3c-10.3-0.2-18.7,8-18.7,18.3c0,2.6,0.1,5.1,0.4,7.6
					c-3.7,25.2-25.5,44.7-51.7,44.7c-28.8,0-52.2-23.3-52.3-52.1c0-9.6-7.4-17.8-17-18.4C36.3,39,27.4,47.4,27.4,57.9
					c0,26.4,11.6,50.1,29.9,66.4c2.9,2.5,4.4,6.2,4.4,10.1L61.4,252c0,14.8,9.7,26.9,21.5,26.9s21.5-12.1,21.5-26.9v-68.4
					c0-8.1,5.3-14.7,11.8-14.7s11.8,6.6,11.8,14.7v12.3c0,14.8,9.7,26.9,21.5,26.9s21.5-12.1,21.5-26.9l-0.3-61.6
					c0-3.8,1.5-7.4,4.4-10c4.1-3.6,7.8-7.7,11.2-12c3.4,4.3,7.1,8.3,11.2,12c2.8,2.5,4.4,6.2,4.4,10l-0.3,61.6
					c0,14.8,9.7,26.9,21.5,26.9s21.5-12,21.5-26.8v-12.3c0-8.1,5.3-14.7,11.8-14.7s11.8,6.6,11.8,14.7v68.4
					c0,14.8,9.7,26.9,21.5,26.9s21.5-12.1,21.5-26.9l-0.3-117.6c0-3.8,1.6-7.5,4.4-10.1c18.3-16.3,29.9-40,29.9-66.4
					C345.2,47.5,336.3,39,325.6,39.7z"/>
			</g>
		</g>
		<g>
			<path class="st3" d="M370.4,108.9h30.4v11.8c2.7-3.6,6.2-6.8,10.4-9.6c4.1-2.7,9.2-4.1,15.3-4.1c5.8,0,10.8,1.3,15,3.7
				c4.2,2.4,7.6,5.9,9.9,10.4c3.7-4.4,7.8-7.8,12.4-10.3c4.6-2.4,10-3.7,16.4-3.7c9.2,0,16.4,2.7,21.7,8.2
				c5.3,5.5,7.8,13.2,7.8,23.3v56.6h-30.4v-46.8c0-4.7-1-8.3-3.2-10.8c-2.1-2.4-5-3.6-8.6-3.6c-3.6,0-6.5,1.2-8.8,3.6
				c-2.3,2.4-3.5,6-3.5,10.8v46.8h-30.5v-46.8c0-4.7-1-8.3-3.2-10.8c-2.1-2.4-5-3.6-8.6-3.6c-3.6,0-6.5,1.2-8.7,3.6
				c-2.3,2.4-3.5,6-3.5,10.8v46.8h-30.4L370.4,108.9L370.4,108.9z"/>
			<path class="st3" d="M549.7,197c-4.1,0-8-0.6-11.4-1.8s-6.5-2.8-9.1-5.1c-2.6-2.2-4.6-5-6.2-8.3s-2.2-7.1-2.2-11.4V170
				c0-4.5,0.8-8.3,2.4-11.8c1.7-3.5,4-6.2,6.8-8.5c2.9-2.2,6.4-4,10.6-5.1c4.1-1.2,8.7-1.8,13.9-1.8c4,0,7.8,0.4,11.5,1
				s6.7,1.4,9.1,2.3v-1.4c0-4.5-1.4-8-4.2-10.4c-2.8-2.4-7.2-3.7-13-3.7c-4.6,0-8.7,0.4-12.4,1.3c-3.7,0.9-7.4,2.1-11.3,3.5
				l-6.2-21.3c4.9-2.1,10-3.6,15.5-4.9c5.5-1.2,11.9-1.8,19.4-1.8c7.7,0,14.4,0.9,19.6,2.7c5.4,1.8,9.7,4.4,13.1,7.8
				c3.3,3.2,5.6,7.1,7.1,11.5c1.4,4.5,2.2,9.7,2.2,15.9v49.5h-30v-9c-2.9,3.3-6.5,5.9-10.6,7.8C560.3,195.9,555.4,197,549.7,197z
				 M560.6,178c4.5,0,8.1-1.3,10.8-3.8c2.7-2.6,4.1-6,4.1-10.4v-4c-1.5-0.6-3.2-1.2-5.4-1.5c-2.1-0.4-4.2-0.6-6.4-0.6
				c-4.5,0-7.8,1-10.3,2.9c-2.4,1.9-3.6,4.5-3.6,7.7v0.3c0,2.9,1,5.3,3.1,6.9C554.9,177.1,557.5,178,560.6,178z"/>
			<path class="st3" d="M654.8,196.7c-9.2,0-16.3-2.2-21.4-6.5s-7.7-11.7-7.7-21.9v-35h-10.1v-24.4h10.1V87.1h30.4v21.8h20.1v24.4
				h-20.1v29.1c0,3.1,0.6,5.3,2.1,6.7c1.4,1.3,3.5,2.1,6.2,2.1c2.1,0,4-0.3,5.9-0.8s3.7-1.2,5.5-2.1V192c-2.7,1.5-5.9,2.7-9.4,3.6
				C662.9,196.3,659.1,196.7,654.8,196.7z"/>
			<path class="st3" d="M731.8,197.1c-6.8,0-13-1-18.6-3.2c-5.6-2.2-10.5-5.3-14.6-9.1c-4.1-3.8-7.3-8.6-9.6-14.1
				c-2.3-5.5-3.5-11.7-3.5-18.3v-0.3c0-6.3,1-12.2,3.2-17.6c2.2-5.5,5.1-10.3,9-14.4c3.8-4.1,8.5-7.3,13.7-9.6
				c5.3-2.3,11.2-3.5,17.6-3.5c7.4,0,13.9,1.3,19.4,3.8c5.5,2.6,10,6,13.6,10.3c3.6,4.4,6.2,9.2,8,15c1.8,5.6,2.7,11.7,2.7,18.1
				c0,0.9,0,1.9,0,3.1c0,1,0,2.2-0.1,3.2h-57.7c1.2,4.7,3.3,8.3,6.7,10.6c3.2,2.3,7.3,3.5,12.1,3.5c3.6,0,6.9-0.6,10-2.1
				c3.1-1.4,6-3.6,9.1-6.7l16.7,13.9c-4.1,5.3-9.2,9.6-15.4,12.7C747.7,195.4,740.4,197.1,731.8,197.1z M744.1,144.9
				c-0.5-4.7-2.2-8.6-4.7-11.4c-2.7-2.8-6-4.2-10.1-4.2c-4,0-7.3,1.4-9.9,4.2c-2.6,2.8-4.2,6.7-5.1,11.4H744.1z"/>
		</g>
	</g>
</g>
</svg>
