<?xml version="1.0" encoding="utf-8"?>
<!-- Generator: Adobe Illustrator 25.3.1, SVG Export Plug-In . SVG Version: 6.00 Build 0)  -->
<svg version="1.1" xmlns="http://www.w3.org/2000/svg" xmlns:xlink="http://www.w3.org/1999/xlink" x="0px" y="0px"
	 viewBox="0 0 720 720" style="enable-background:new 0 0 720 720;" xml:space="preserve">
<style type="text/css">
	.st0{display:none;}
	.st1{display:inline;}
	.st2{fill:#27AAE1;}
	.st3{fill:#414042;}
</style>
<g id="Layer_1" class="st0">
	<g class="st1">
		<g>
			<g>
				<circle class="st2" cx="167.85" cy="283.8" r="30.6"/>
			</g>
			<g>
				<circle class="st2" cx="283.95" cy="283.8" r="30.6"/>
			</g>
			<g>
				<path class="st2" d="M341.31,268.69c-7.91,0.54-14.04,7.34-14.07,15.26c-0.09,23.79-19.47,43.13-43.28,43.13
					c-21.74,0-39.77-16.11-42.82-37.01c0.18-2.07,0.29-4.16,0.29-6.27c0-8.49-6.99-15.32-15.52-15.12
					c-8.53-0.21-15.52,6.63-15.52,15.12c0,2.12,0.12,4.2,0.29,6.27c-3.05,20.9-21.09,37.01-42.82,37.01
					c-23.81,0-43.2-19.33-43.28-43.13c-0.03-7.93-6.17-14.72-14.07-15.26c-8.85-0.61-16.21,6.39-16.21,15.11
					c0,21.85,9.59,41.5,24.77,54.98c2.37,2.1,3.67,5.16,3.66,8.33l-0.25,97.43c0,12.28,8,22.26,17.82,22.26s17.82-9.99,17.82-22.26
					l0-56.63c0-6.71,4.37-12.17,9.74-12.17c5.37,0,9.74,5.46,9.74,12.17v10.19c0,12.28,8,22.26,17.82,22.26
					c9.83,0,17.82-9.99,17.82-22.28l-0.23-51.04c-0.01-3.13,1.27-6.16,3.62-8.24c3.39-3.01,6.49-6.34,9.28-9.92
					c2.79,3.58,5.88,6.91,9.28,9.92c2.34,2.08,3.62,5.11,3.62,8.24l-0.23,51.04c0,12.29,8,22.28,17.82,22.28
					c9.83,0,17.82-9.99,17.82-22.26v-10.19c0-6.71,4.37-12.17,9.74-12.17s9.74,5.46,9.74,12.17l0,56.63c0,12.28,8,22.26,17.82,22.26
					s17.82-9.99,17.82-22.26l-0.25-97.43c-0.01-3.17,1.29-6.23,3.66-8.33c15.18-13.48,24.77-33.13,24.77-54.98
					C357.52,275.08,350.16,268.09,341.31,268.69z"/>
			</g>
		</g>
		<g>
			<path class="st3" d="M382.41,443.28c-4.52,0-8.7-0.64-12.52-1.91c-3.83-1.27-7.16-3.13-10-5.56c-2.84-2.43-5.07-5.45-6.7-9.04
				c-1.62-3.59-2.43-7.77-2.43-12.52v-0.35c0-4.87,0.9-9.16,2.7-12.87c1.8-3.71,4.29-6.78,7.48-9.22c3.19-2.43,7.04-4.29,11.57-5.56
				c4.52-1.27,9.57-1.91,15.13-1.91c4.41,0,8.61,0.38,12.61,1.13c4,0.76,7.33,1.6,10,2.52v-1.56c0-4.87-1.54-8.64-4.61-11.3
				c-3.07-2.67-7.8-4-14.17-4c-4.99,0-9.51,0.46-13.57,1.39c-4.06,0.93-8.17,2.2-12.35,3.82l-6.78-23.3
				c5.33-2.2,10.98-3.97,16.96-5.3c5.97-1.33,13.01-2,21.13-2c8.46,0,15.62,0.99,21.48,2.96c5.85,1.97,10.64,4.81,14.35,8.52
				c3.59,3.48,6.17,7.68,7.74,12.61c1.56,4.93,2.35,10.7,2.35,17.31v54.09h-32.7v-9.74c-3.25,3.6-7.1,6.46-11.56,8.61
				C394.03,442.2,388.67,443.28,382.41,443.28z M394.24,422.58c4.87,0,8.81-1.39,11.83-4.17c3.01-2.78,4.52-6.55,4.52-11.3v-4.35
				c-1.63-0.7-3.57-1.27-5.83-1.74c-2.26-0.46-4.61-0.7-7.04-0.7c-4.87,0-8.61,1.07-11.22,3.22c-2.61,2.15-3.91,4.96-3.91,8.44v0.35
				c0,3.25,1.1,5.77,3.3,7.56C388.09,421.69,390.87,422.58,394.24,422.58z"/>
			<path class="st3" d="M497.19,443.1c-10.03,0-17.83-2.38-23.43-7.13c-5.6-4.75-8.39-12.75-8.39-24v-38.26h-11.13V347.1h11.13
				v-23.83h33.22v23.83h21.91v26.61h-21.91v31.83c0,3.36,0.75,5.77,2.26,7.22c1.51,1.45,3.77,2.17,6.78,2.17
				c2.2,0,4.35-0.29,6.43-0.87c2.09-0.58,4.12-1.33,6.09-2.26v25.91c-3.02,1.62-6.43,2.93-10.26,3.91
				C506.07,442.61,501.83,443.1,497.19,443.1z"/>
			<path class="st3" d="M581.2,443.45c-7.42,0-14.2-1.19-20.35-3.57c-6.15-2.37-11.45-5.68-15.91-9.91
				c-4.47-4.23-7.94-9.36-10.44-15.39c-2.49-6.03-3.74-12.7-3.74-20v-0.35c0-6.84,1.16-13.24,3.48-19.22
				c2.32-5.97,5.59-11.19,9.83-15.65c4.23-4.46,9.24-7.97,15.04-10.52c5.8-2.55,12.17-3.83,19.13-3.83c8.12,0,15.16,1.39,21.13,4.17
				c5.97,2.78,10.9,6.52,14.78,11.22c3.88,4.69,6.78,10.15,8.7,16.35c1.91,6.2,2.87,12.78,2.87,19.74c0,1.04,0,2.15,0,3.3
				c0,1.16-0.06,2.32-0.17,3.48h-62.96c1.27,5.22,3.68,9.1,7.22,11.65c3.53,2.55,7.91,3.83,13.13,3.83c3.94,0,7.56-0.75,10.87-2.26
				c3.3-1.51,6.64-3.94,10-7.3l18.26,15.13c-4.52,5.8-10.12,10.44-16.78,13.91C598.62,441.71,590.59,443.45,581.2,443.45z
				 M594.76,386.41c-0.58-5.22-2.32-9.36-5.22-12.43c-2.9-3.07-6.61-4.61-11.13-4.61c-4.41,0-8,1.54-10.78,4.61
				c-2.78,3.07-4.64,7.22-5.56,12.43H594.76z"/>
		</g>
	</g>
</g>
<g id="Layer_2">
	<g>
		<g>
			<g>
				<circle class="st2" cx="269.92" cy="175.17" r="44.87"/>
			</g>
			<g>
				<circle class="st2" cx="440.11" cy="175.17" r="44.87"/>
			</g>
			<g>
				<path class="st2" d="M524.2,153.02c-11.59,0.8-20.59,10.76-20.63,22.38c-0.12,34.88-28.54,63.22-63.45,63.22
					c-31.86,0-58.3-23.61-62.77-54.26c0.26-3.04,0.43-6.1,0.43-9.2c0-12.44-10.24-22.46-22.75-22.16
					c-12.51-0.3-22.75,9.72-22.75,22.16c0,3.1,0.17,6.16,0.43,9.2c-4.47,30.64-30.91,54.26-62.77,54.26
					c-34.91,0-63.33-28.34-63.45-63.22c-0.04-11.62-9.04-21.58-20.63-22.38c-12.97-0.89-23.77,9.37-23.77,22.15
					c0,32.04,14.06,60.84,36.31,80.6c3.47,3.08,5.38,7.57,5.37,12.21l-0.36,142.82c0,18,11.72,32.64,26.13,32.64
					c14.41,0,26.13-14.64,26.13-32.64l0-83.02c0-9.84,6.41-17.84,14.28-17.84c7.87,0,14.28,8,14.28,17.84v14.94
					c0,18,11.72,32.64,26.13,32.64c14.41,0,26.13-14.64,26.13-32.66l-0.33-74.82c-0.01-4.59,1.86-9.03,5.3-12.08
					c4.97-4.41,9.51-9.3,13.6-14.55c4.09,5.25,8.63,10.13,13.6,14.55c3.44,3.05,5.31,7.49,5.3,12.08l-0.33,74.82
					c0,18.02,11.72,32.66,26.13,32.66c14.41,0,26.13-14.64,26.13-32.64v-14.94c0-9.84,6.41-17.84,14.28-17.84
					c7.87,0,14.28,8,14.28,17.84l0,83.02c0,18,11.72,32.64,26.13,32.64c14.41,0,26.13-14.64,26.13-32.64l-0.36-142.82
					c-0.01-4.64,1.9-9.13,5.37-12.21c22.25-19.77,36.31-48.57,36.31-80.6C547.97,162.39,537.17,152.13,524.2,153.02z"/>
			</g>
		</g>
		<g>
			<path class="st3" d="M177.27,506.18h28.79v11.16c2.61-3.42,5.87-6.43,9.79-9.05c3.92-2.61,8.74-3.92,14.47-3.92
				c5.43,0,10.15,1.16,14.17,3.47c4.02,2.31,7.13,5.58,9.34,9.8c3.52-4.12,7.44-7.36,11.76-9.72c4.32-2.36,9.5-3.54,15.53-3.54
				c8.75,0,15.58,2.59,20.51,7.76c4.93,5.18,7.39,12.54,7.39,22.09v53.52h-28.79v-44.32c0-4.52-1-7.92-3-10.18
				c-2-2.26-4.69-3.39-8.09-3.39c-3.4,0-6.19,1.13-8.39,3.39c-2.2,2.26-3.29,5.65-3.29,10.18v44.32h-28.79v-44.32
				c0-4.52-1-7.92-3-10.18c-2-2.26-4.69-3.39-8.09-3.39c-3.39,0-6.17,1.13-8.31,3.39c-2.15,2.26-3.22,5.65-3.22,10.18v44.32h-28.79
				V506.18z"/>
			<path class="st3" d="M347.03,589.54c-3.92,0-7.54-0.55-10.85-1.66c-3.32-1.1-6.21-2.71-8.67-4.82c-2.46-2.11-4.4-4.72-5.8-7.84
				c-1.41-3.11-2.11-6.73-2.11-10.85v-0.3c0-4.22,0.78-7.94,2.34-11.16c1.56-3.22,3.72-5.88,6.48-7.99
				c2.76-2.11,6.11-3.72,10.03-4.82c3.92-1.1,8.29-1.66,13.12-1.66c3.82,0,7.46,0.33,10.93,0.98c3.47,0.66,6.36,1.38,8.67,2.19
				v-1.36c0-4.22-1.33-7.49-3.99-9.8c-2.66-2.31-6.76-3.47-12.29-3.47c-4.32,0-8.24,0.4-11.76,1.21c-3.52,0.81-7.09,1.91-10.7,3.32
				l-5.88-20.2c4.62-1.91,9.52-3.44,14.7-4.6c5.17-1.15,11.28-1.73,18.32-1.73c7.33,0,13.54,0.86,18.62,2.56
				c5.07,1.71,9.22,4.17,12.44,7.39c3.11,3.01,5.35,6.66,6.71,10.93c1.36,4.27,2.04,9.27,2.04,15v46.89H371v-8.44
				c-2.81,3.12-6.16,5.6-10.02,7.46C357.1,588.61,352.45,589.54,347.03,589.54z M357.28,571.6c4.22,0,7.64-1.21,10.25-3.62
				c2.61-2.41,3.92-5.68,3.92-9.8v-3.77c-1.41-0.6-3.09-1.1-5.05-1.51c-1.96-0.4-4-0.6-6.11-0.6c-4.22,0-7.46,0.93-9.72,2.79
				c-2.26,1.86-3.39,4.3-3.39,7.31v0.3c0,2.81,0.95,5,2.86,6.56C351.95,570.83,354.36,571.6,357.28,571.6z"/>
			<path class="st3" d="M446.52,589.39c-8.69,0-15.46-2.06-20.31-6.18c-4.85-4.12-7.27-11.05-7.27-20.8v-33.17h-9.65v-23.07h9.65
				v-20.65h28.79v20.65h19v23.07h-19v27.59c0,2.92,0.65,5,1.96,6.26c1.31,1.26,3.27,1.89,5.88,1.89c1.91,0,3.77-0.25,5.58-0.75
				c1.81-0.5,3.57-1.15,5.28-1.96v22.46c-2.61,1.41-5.58,2.54-8.89,3.39C454.21,588.97,450.54,589.39,446.52,589.39z"/>
			<path class="st3" d="M519.34,589.7c-6.43,0-12.31-1.03-17.64-3.09c-5.33-2.06-9.93-4.92-13.79-8.59
				c-3.87-3.67-6.89-8.12-9.05-13.34c-2.16-5.22-3.24-11.01-3.24-17.34v-0.3c0-5.93,1-11.48,3.02-16.66
				c2.01-5.18,4.85-9.7,8.52-13.57c3.67-3.87,8.01-6.91,13.04-9.12c5.02-2.21,10.55-3.32,16.58-3.32c7.03,0,13.14,1.21,18.32,3.62
				c5.17,2.41,9.45,5.65,12.81,9.72c3.37,4.07,5.88,8.8,7.54,14.17c1.66,5.38,2.49,11.08,2.49,17.11c0,0.9,0,1.86,0,2.86
				c0,1.01-0.05,2.01-0.15,3.01h-54.57c1.1,4.52,3.19,7.89,6.26,10.1c3.06,2.21,6.86,3.32,11.38,3.32c3.42,0,6.56-0.65,9.42-1.96
				c2.86-1.31,5.75-3.42,8.67-6.33l15.83,13.12c-3.92,5.03-8.77,9.05-14.55,12.06C534.44,588.19,527.48,589.7,519.34,589.7z
				 M531.1,540.25c-0.5-4.52-2.01-8.11-4.52-10.78c-2.51-2.66-5.73-4-9.65-4c-3.82,0-6.94,1.33-9.35,4
				c-2.41,2.66-4.02,6.26-4.82,10.78H531.1z"/>
		</g>
	</g>
</g>
</svg>
